<?xml version="1.0" standalone="no"?>
<!DOCTYPE svg PUBLIC "-//W3C//DTD SVG 20010904//EN"
 "http://www.w3.org/TR/2001/REC-SVG-20010904/DTD/svg10.dtd">
<svg version="1.0" xmlns="http://www.w3.org/2000/svg"
 width="10pt" height="10pt" viewBox="0 0 2500.000000 2500.000000"
 preserveAspectRatio="xMidYMid meet">

<g transform="translate(0.000000,2500.000000) scale(0.100000,-0.100000)"
fill="#000000" stroke="none">
<path d="M8505 24410 c-233 -22 -463 -87 -670 -189 -597 -295 -1125 -928
-1439 -1728 -232 -589 -342 -1136 -376 -1872 -26 -558 66 -1359 226 -1969 311
-1186 801 -2110 1488 -2810 294 -300 574 -522 889 -706 495 -290 1117 -388
1802 -285 269 41 346 70 520 196 532 388 923 929 1193 1653 86 229 153 465
216 762 119 559 137 1373 46 2103 -146 1166 -563 2307 -1182 3238 -524 789
-1281 1376 -1999 1551 -217 52 -511 76 -714 56z"/>
<path d="M17170 24023 c-223 -21 -415 -72 -690 -183 -293 -117 -554 -267 -834
-478 -610 -461 -1175 -1193 -1575 -2041 -409 -865 -630 -1663 -711 -2566 -17
-187 -14 -801 5 -991 48 -486 121 -830 261 -1234 175 -506 406 -883 759 -1235
242 -242 470 -408 766 -555 261 -129 504 -203 799 -242 121 -16 495 -15 620 1
393 50 756 198 1120 456 403 286 822 741 1185 1290 544 820 898 1771 1019
2740 44 346 49 460 47 1090 0 336 -6 673 -11 750 -61 829 -307 1567 -714 2140
-156 221 -435 516 -606 642 -312 231 -683 374 -1069 413 -96 9 -290 11 -371 3z"/>
<path d="M2810 17609 c-362 -44 -727 -196 -1046 -435 -435 -325 -776 -826
-968 -1423 -86 -267 -135 -529 -157 -846 -15 -211 -6 -722 16 -925 129 -1213
600 -2335 1364 -3250 126 -150 394 -424 551 -563 479 -422 1036 -753 1540
-915 581 -187 1178 -211 1656 -66 288 87 554 241 739 428 336 339 591 833 694
1346 52 260 54 283 58 890 5 613 1 711 -43 1040 -159 1187 -630 2273 -1374
3170 -120 144 -513 541 -645 652 -559 466 -1228 790 -1825 883 -124 19 -452
28 -560 14z"/>
<path d="M21730 16043 c-376 -26 -687 -117 -1085 -316 -479 -239 -830 -492
-1216 -877 -424 -424 -740 -862 -1014 -1409 -340 -680 -540 -1383 -610 -2143
-17 -191 -20 -737 -5 -934 23 -292 67 -515 151 -768 162 -487 406 -875 781
-1241 218 -214 428 -368 679 -499 381 -199 688 -280 1162 -308 334 -19 565 8
847 102 438 144 826 387 1291 808 161 145 412 409 569 597 662 793 1062 1778
1155 2840 18 202 21 1005 5 1216 -71 921 -412 1741 -951 2289 -302 307 -717
521 -1173 604 -198 37 -416 51 -586 39z"/>
<path d="M12090 12549 c-388 -38 -746 -146 -1311 -394 -1153 -506 -2299 -1428
-3461 -2787 -728 -850 -1328 -1697 -1855 -2619 -591 -1031 -962 -2012 -1129
-2984 -35 -200 -39 -470 -11 -650 71 -454 287 -881 608 -1204 115 -115 213
-194 369 -297 469 -307 861 -470 1365 -568 471 -91 908 -117 1635 -96 640 18
792 26 975 55 543 84 879 157 1590 345 935 247 1521 383 1900 440 180 27 465
37 617 21 331 -36 627 -119 1143 -321 476 -186 638 -247 826 -308 562 -184
1118 -263 1729 -249 424 11 718 43 935 102 609 167 1168 577 1528 1120 101
153 233 418 281 565 97 299 125 595 91 961 -84 892 -354 1722 -940 2884 -226
448 -317 615 -515 945 -893 1489 -1879 2679 -2990 3609 -687 575 -1302 949
-1989 1212 -223 85 -568 171 -821 204 -154 20 -443 27 -570 14z"/>
</g>
</svg>
